<?xml version="1.0" encoding="UTF-8" standalone="no"?>
<svg xmlns="http://www.w3.org/2000/svg" width="300" height="200" viewBox="0 0 300 200">
  <!-- Background floral pattern (light) -->
  <g opacity="0.1" fill="#4a9f5d">
    <path d="M20,20 C30,10 50,15 45,30 C40,45 20,40 20,20 Z" />
    <path d="M250,30 C260,20 280,25 275,40 C270,55 250,50 250,30 Z" />
    <path d="M40,150 C50,140 70,145 65,160 C60,175 40,170 40,150 Z" />
    <path d="M230,160 C240,150 260,155 255,170 C250,185 230,180 230,160 Z" />
    <!-- Hibiscus flower shapes -->
    <path d="M70,50 C90,40 110,60 100,80 C90,100 70,80 70,50 Z" />
    <path d="M200,60 C220,50 240,70 230,90 C220,110 200,90 200,60 Z" />
    <path d="M50,120 C70,110 90,130 80,150 C70,170 50,150 50,120 Z" />
    <path d="M220,130 C240,120 260,140 250,160 C240,180 220,160 220,130 Z" />
  </g>
  
  <!-- Red hibiscus flower accent -->
  <g opacity="0.3" fill="#e74c3c">
    <path d="M30,100 C50,80 80,90 70,120 C60,150 30,130 30,100 Z" />
  </g>
  
  <!-- Text: LAVANDERÍA Y TINTORERÍA -->
  <text x="150" y="60" font-family="Arial, sans-serif" font-size="12" text-anchor="middle" fill="#333333">LAVANDERÍA Y TINTORERÍA</text>
  
  <!-- Text: Ohana -->
  <text x="150" y="100" font-family="Arial, sans-serif" font-size="36" font-weight="bold" text-anchor="middle" fill="#0a2540">Ohana</text>
  
  <!-- Hibiscus flower icon next to Ohana -->
  <path d="M205,95 C208,90 215,92 212,98 C209,104 202,102 205,95 Z" fill="#0a2540" />
  
  <!-- Text: CAMARGO 590 | CABA -->
  <text x="150" y="130" font-family="Arial, sans-serif" font-size="12" text-anchor="middle" fill="#333333">CAMARGO 590 | CABA</text>
  
  <!-- Text: Phone number -->
  <text x="150" y="150" font-family="Arial, sans-serif" font-size="12" text-anchor="middle" fill="#333333">+ 54 9 11 3642 4871</text>
</svg>
